<svg width="156" height="31" viewBox="0 0 156 31" fill="none" xmlns="http://www.w3.org/2000/svg">
<g clip-path="url(#clip0)">
<path fill-rule="evenodd" clip-rule="evenodd" d="M12.6499 29.0107C18.8911 29.0107 23.9506 23.9512 23.9506 17.71C23.9506 11.4688 18.8911 6.40934 12.6499 6.40934C6.40874 6.40934 1.34926 11.4688 1.34926 17.71C1.34926 23.9512 6.40874 29.0107 12.6499 29.0107ZM13.0031 17.3569H18.1237C18.2174 17.3569 18.3072 17.3942 18.3734 17.4604C18.4396 17.5266 18.4768 17.6164 18.4768 17.7101C18.4768 17.8038 18.4396 17.8936 18.3734 17.9598C18.3072 18.026 18.2174 18.0632 18.1237 18.0632H13.0031V23.1839C13.0031 23.2775 12.9659 23.3673 12.8996 23.4336C12.8334 23.4998 12.7436 23.537 12.6499 23.537C12.5563 23.537 12.4664 23.4998 12.4002 23.4336C12.334 23.3673 12.2968 23.2775 12.2968 23.1839V18.0632H7.17617C7.08251 18.0632 6.99268 18.026 6.92646 17.9598C6.86023 17.8936 6.82302 17.8038 6.82302 17.7101C6.82302 17.6164 6.86023 17.5266 6.92646 17.4604C6.99268 17.3942 7.08251 17.3569 7.17617 17.3569H12.2968V12.2363C12.2968 12.1427 12.334 12.0528 12.4002 11.9866C12.4664 11.9204 12.5563 11.8832 12.6499 11.8832C12.7436 11.8832 12.8334 11.9204 12.8996 11.9866C12.9659 12.0528 13.0031 12.1427 13.0031 12.2363V17.3569Z" fill="#93C22F"/>
</g>
<path d="M39.287 14.396C39.287 20.8583 33.9803 26.097 27.4341 26.097C20.8879 26.097 15.5811 20.8583 15.5811 14.396C15.5811 7.93373 20.8162 2.55176 27.3624 2.55176C33.9087 2.55176 39.287 7.93373 39.287 14.396V14.396Z" fill="#FD8033"/>
<path d="M26.9138 8.79811C27.9483 10.3443 27.2413 12.6319 25.3348 13.9075C23.4281 15.1831 21.0439 14.9637 20.0094 13.4175C18.975 11.8713 18.7637 10.4919 20.6703 9.21628C22.5769 7.94069 25.8794 7.25192 26.9138 8.79811Z" fill="#FF9656"/>
<path d="M28.8555 3.97385C29.1168 4.36444 28.9382 4.9424 28.4565 5.26464C27.9749 5.58689 27.3725 5.5315 27.1112 5.14084C26.8499 4.75023 26.7965 4.40174 27.2781 4.07948C27.7598 3.75721 28.5941 3.58323 28.8554 3.97367L28.8555 3.97385Z" fill="#803300" fill-opacity="0.244444"/>
<path d="M22.8507 9.96315C23.0728 10.295 22.921 10.786 22.5118 11.0598C22.1026 11.3336 21.5909 11.2865 21.3688 10.9546C21.1468 10.6227 21.1015 10.3267 21.5107 10.0529C21.9199 9.77911 22.6287 9.63131 22.8507 9.96315Z" fill="white"/>
<path d="M25.9084 1.06605L27.428 4.81441L28.8464 4.30788L27.0228 0.255578L25.9084 1.06605Z" fill="#A77335"/>
<path d="M29.7385 1.41556C28.8111 1.97908 28.1153 2.74989 28.3652 3.56369C28.5689 4.22678 30.3497 4.05069 31.2771 3.48719C32.2045 2.92367 33.6955 0.421889 32.808 0.755801C31.7132 1.16764 30.6659 0.852057 29.7385 1.41562V1.41556Z" fill="#93C22F"/>
<path d="M28.6389 3.43502L32.038 1.56409" stroke="white" stroke-opacity="0.4" stroke-width="0.277182"/>
<path d="M28.6389 3.43502L32.038 1.56409" stroke="white" stroke-opacity="0.4" stroke-width="0.277182"/>
<path d="M29.477 3.11159L29.927 3.51634" stroke="white" stroke-opacity="0.4" stroke-width="0.277182"/>
<path d="M29.477 3.11159L29.927 3.51634" stroke="white" stroke-opacity="0.4" stroke-width="0.277182"/>
<path d="M30.22 2.56359L30.9267 3.0066" stroke="white" stroke-opacity="0.4" stroke-width="0.277182"/>
<path d="M30.22 2.56359L30.9267 3.0066" stroke="white" stroke-opacity="0.4" stroke-width="0.277182"/>
<path d="M31.5321 1.98412L32.0614 2.33702" stroke="white" stroke-opacity="0.4" stroke-width="0.277182"/>
<path d="M31.5321 1.98412L32.0614 2.33702" stroke="white" stroke-opacity="0.4" stroke-width="0.277182"/>
<path d="M30.8538 2.17639L30.8294 1.43099" stroke="white" stroke-opacity="0.4" stroke-width="0.277182"/>
<path d="M30.8538 2.17639L30.8294 1.43099" stroke="white" stroke-opacity="0.4" stroke-width="0.277182"/>
<path d="M29.477 3.11156L29.4915 2.00937" stroke="white" stroke-opacity="0.4" stroke-width="0.277182"/>
<path d="M29.477 3.11156L29.4915 2.00937" stroke="white" stroke-opacity="0.4" stroke-width="0.277182"/>
<path d="M30.22 2.56352L30.3027 1.71231" stroke="white" stroke-opacity="0.4" stroke-width="0.277182"/>
<path d="M30.22 2.56352L30.3027 1.71231" stroke="white" stroke-opacity="0.4" stroke-width="0.277182"/>
<path d="M44.1378 22H46.9055V16.5923H52.2301V14.3104H46.9055V11.1911H52.8054V8.90909H44.1378V22ZM58.3313 22.1918C61.31 22.1918 63.1637 20.1527 63.1637 17.1293C63.1637 14.0866 61.31 12.054 58.3313 12.054C55.3526 12.054 53.4989 14.0866 53.4989 17.1293C53.4989 20.1527 55.3526 22.1918 58.3313 22.1918ZM58.3441 20.0824C56.9698 20.0824 56.2667 18.8232 56.2667 17.1101C56.2667 15.397 56.9698 14.1314 58.3441 14.1314C59.6928 14.1314 60.396 15.397 60.396 17.1101C60.396 18.8232 59.6928 20.0824 58.3441 20.0824ZM69.3704 22.1918C72.3491 22.1918 74.2028 20.1527 74.2028 17.1293C74.2028 14.0866 72.3491 12.054 69.3704 12.054C66.3917 12.054 64.538 14.0866 64.538 17.1293C64.538 20.1527 66.3917 22.1918 69.3704 22.1918ZM69.3832 20.0824C68.0089 20.0824 67.3058 18.8232 67.3058 17.1101C67.3058 15.397 68.0089 14.1314 69.3832 14.1314C70.7319 14.1314 71.435 15.397 71.435 17.1101C71.435 18.8232 70.7319 20.0824 69.3832 20.0824ZM79.5913 22.1598C81.1765 22.1598 82.0011 21.2457 82.3782 20.4276H82.4933V22H85.1779V8.90909H82.4613V13.831H82.3782C82.0138 13.032 81.2276 12.054 79.5849 12.054C77.4308 12.054 75.609 13.7287 75.609 17.1037C75.609 20.3892 77.354 22.1598 79.5913 22.1598ZM80.4542 19.9929C79.1183 19.9929 78.3896 18.804 78.3896 17.0909C78.3896 15.3906 79.1055 14.2209 80.4542 14.2209C81.7773 14.2209 82.5188 15.3395 82.5188 17.0909C82.5188 18.8423 81.7646 19.9929 80.4542 19.9929ZM86.9693 11.1911H90.9771V22H93.7129V11.1911H97.7207V8.90909H86.9693V11.1911ZM102.452 22.1918C105.431 22.1918 107.285 20.1527 107.285 17.1293C107.285 14.0866 105.431 12.054 102.452 12.054C99.4737 12.054 97.62 14.0866 97.62 17.1293C97.62 20.1527 99.4737 22.1918 102.452 22.1918ZM102.465 20.0824C101.091 20.0824 100.388 18.8232 100.388 17.1101C100.388 15.397 101.091 14.1314 102.465 14.1314C103.814 14.1314 104.517 15.397 104.517 17.1101C104.517 18.8232 103.814 20.0824 102.465 20.0824ZM115.058 22.179C116.668 22.179 117.832 21.5717 118.714 20.5043H118.784L118.944 22H120.836V14.9943H115.243V17.0781H118.107C118.055 18.6634 116.937 19.7308 115.07 19.7308C113.012 19.7308 111.683 18.1776 111.683 15.4418C111.683 12.7124 113.102 11.1783 115.102 11.1783C116.528 11.1783 117.582 11.9006 117.928 13.1406H120.727C120.369 10.5391 118.017 8.73011 115.058 8.73011C111.599 8.73011 108.876 11.223 108.876 15.4673C108.876 19.6094 111.388 22.179 115.058 22.179ZM127.132 22.1918C130.111 22.1918 131.964 20.1527 131.964 17.1293C131.964 14.0866 130.111 12.054 127.132 12.054C124.153 12.054 122.3 14.0866 122.3 17.1293C122.3 20.1527 124.153 22.1918 127.132 22.1918ZM127.145 20.0824C125.771 20.0824 125.067 18.8232 125.067 17.1101C125.067 15.397 125.771 14.1314 127.145 14.1314C128.494 14.1314 129.197 15.397 129.197 17.1101C129.197 18.8232 128.494 20.0824 127.145 20.0824ZM138.171 22.1918C141.15 22.1918 143.004 20.1527 143.004 17.1293C143.004 14.0866 141.15 12.054 138.171 12.054C135.192 12.054 133.339 14.0866 133.339 17.1293C133.339 20.1527 135.192 22.1918 138.171 22.1918ZM138.184 20.0824C136.81 20.0824 136.107 18.8232 136.107 17.1101C136.107 15.397 136.81 14.1314 138.184 14.1314C139.533 14.1314 140.236 15.397 140.236 17.1101C140.236 18.8232 139.533 20.0824 138.184 20.0824ZM148.392 22.1598C149.977 22.1598 150.802 21.2457 151.179 20.4276H151.294V22H153.979V8.90909H151.262V13.831H151.179C150.815 13.032 150.028 12.054 148.386 12.054C146.232 12.054 144.41 13.7287 144.41 17.1037C144.41 20.3892 146.155 22.1598 148.392 22.1598ZM149.255 19.9929C147.919 19.9929 147.19 18.804 147.19 17.0909C147.19 15.3906 147.906 14.2209 149.255 14.2209C150.578 14.2209 151.32 15.3395 151.32 17.0909C151.32 18.8423 150.565 19.9929 149.255 19.9929Z" fill="#93C22F"/>
<defs>
<clipPath id="clip0">
<rect width="22.6013" height="22.6014" fill="white" transform="translate(1.34926 6.40934)"/>
</clipPath>
</defs>
</svg>
